<?xml version="1.0" encoding="UTF-8"?> <svg xmlns="http://www.w3.org/2000/svg" width="636" height="318" viewBox="0 0 636 318" fill="none"><g clip-path="url(#clip0_903_3218)"><rect width="636" height="318" fill="#EFF0FA"></rect><path d="M500.83 190.161C503.283 181.406 503.369 172.144 502.431 163.106C498.326 123.546 473.676 86.6807 438.646 67.6774C403.617 48.674 359.189 48.0817 323.651 66.1324C283.819 86.3717 256.811 127.108 215.697 144.618C205.635 148.901 194.989 151.665 184.919 155.913C174.315 160.385 164.486 166.454 154.692 172.496C149.666 175.604 144.579 178.754 140.534 183.045C129.913 194.315 128.295 211.336 129.784 226.734C133.029 260.406 150.63 297.503 175.15 320.884L493.962 319.82C507.819 288.233 478.935 256.235 487.688 222.88C490.674 211.49 497.672 201.482 500.847 190.144L500.83 190.161Z" fill="#F8F8FF"></path><path d="M285.102 127.975L314.795 124.731L323.849 121.555C326.715 120.55 328.755 117.993 329.091 114.98L330.227 104.869C330.718 101.358 333.98 100.44 335.021 105.135L337.035 119.709L340.176 124.731L365.3 156.987L368.932 151.922L393.607 169.527L382.599 184.917C375.507 194.83 360.678 194.676 353.801 184.608L320.794 137.906L319.305 136.163C317.145 133.623 313.969 132.155 310.629 132.146L285.093 132.104C282.322 132.129 281.487 127.958 285.093 127.975H285.102Z" fill="white"></path><path d="M368.329 193.113C368.26 193.113 368.191 193.113 368.122 193.113C362.011 193.045 356.537 190.126 353.103 185.088L320.105 138.395L318.668 136.713C316.662 134.361 313.745 133.005 310.646 133.005L285.11 132.962C283.931 132.927 282.855 132.378 282.27 131.374C281.736 130.455 281.702 129.365 282.192 128.533C282.493 128.009 283.277 127.134 285.067 127.125L314.614 123.898L323.582 120.756C326.121 119.864 327.954 117.572 328.256 114.902L329.392 104.791C329.693 102.62 330.924 101.143 332.464 101.075C333.058 101.058 335.064 101.264 335.881 104.963L337.878 119.417L340.899 124.241L365.291 155.553L368.251 151.424C368.527 151.038 369.06 150.952 369.448 151.227C369.835 151.502 369.921 152.042 369.646 152.429L365.342 158.428L339.462 125.194L336.217 120.018L334.186 105.263C333.798 103.547 333.101 102.757 332.533 102.791C331.982 102.817 331.302 103.598 331.104 105.006L329.977 115.091C329.607 118.413 327.326 121.271 324.159 122.379L314.907 125.597L285.118 128.85C284.396 128.876 283.905 129.039 283.69 129.4C283.518 129.7 283.543 130.146 283.767 130.524C283.896 130.747 284.284 131.262 285.093 131.262H285.11L310.655 131.305C314.252 131.305 317.652 132.884 319.985 135.623L321.473 137.365L354.532 184.127C357.656 188.702 362.622 191.354 368.157 191.414C368.217 191.414 368.286 191.414 368.346 191.414C373.811 191.414 378.751 188.873 381.927 184.436L392.935 169.054C393.211 168.668 393.753 168.582 394.14 168.857C394.528 169.132 394.614 169.672 394.338 170.059L383.33 185.44C379.827 190.341 374.371 193.139 368.346 193.139L368.329 193.113Z" fill="#1222B1"></path><path d="M367.451 154.171L381.351 131.056L414.117 148.214L392.041 171.853C392.041 171.853 375.542 152.944 367.451 154.171Z" fill="white"></path><path d="M456.634 212.245L457.452 181.088C459.483 178.419 460.611 175.174 460.671 171.827L461.11 148.214C462.186 135.957 453.605 124.662 440.376 120.868C430.453 118.018 414.668 118.233 402.042 119.246C387.427 120.413 381.067 128.155 378.252 138.867C377.03 143.528 376.626 148.36 376.944 153.167C377.452 160.806 378.425 175.852 378.648 183.174C378.967 193.757 375.911 197.98 375.257 205.851L376.548 212.237L456.634 212.254V212.245Z" fill="white"></path><path d="M453.037 164.291C453.114 162.299 453.579 160.36 453.889 158.394C454.182 156.532 454.242 154.66 453.855 152.798C453.51 151.141 452.873 149.562 452.073 148.077C450.429 145.013 448.166 142.335 445.936 139.691C443.578 136.893 441.289 134.026 439.731 130.696C438.268 127.58 437.441 124.044 438.345 120.645C438.371 120.55 438.397 120.456 438.423 120.362C438.689 120.422 438.956 120.49 439.223 120.559C438.44 123.271 438.827 126.172 439.826 128.825C442.339 135.494 448.045 140.077 451.789 145.974C453.553 148.755 454.87 151.879 454.956 155.21C455.051 159.038 453.476 162.711 453.958 166.557C454.371 169.887 456.024 172.977 458.115 175.561C458.588 176.144 459.088 176.711 459.613 177.252C459.509 177.526 459.389 177.801 459.268 178.067C459.251 178.05 459.225 178.024 459.208 178.007C456.824 175.561 454.801 172.659 453.76 169.381C453.235 167.741 452.985 166.007 453.054 164.291H453.037Z" fill="#DEE0F7"></path><path d="M409.34 118.782C409.908 121.16 410.338 123.572 410.536 125.992C410.803 129.28 410.493 132.67 408.901 135.614C407.567 138.077 405.372 140.077 402.61 140.755C399.941 141.416 397.153 140.807 394.734 139.605C392.178 138.326 389.949 136.378 388.228 134.103C386.696 132.078 385.396 129.606 383.21 128.19C383.373 127.975 383.546 127.76 383.726 127.554C384.811 128.284 385.697 129.262 386.489 130.292C387.341 131.4 388.09 132.584 388.933 133.7C389.786 134.824 390.784 135.854 391.868 136.756C393.968 138.507 396.568 139.906 399.33 140.172C402.11 140.446 404.77 139.434 406.655 137.374C411.216 132.387 409.908 124.799 408.488 118.825C408.772 118.808 409.047 118.799 409.331 118.782H409.34Z" fill="#DEE0F7"></path><path d="M440.901 192.032C438.276 191.869 435.677 191.345 433.164 190.564C430.874 189.852 428.619 188.925 426.554 187.697C425.736 187.208 424.944 186.667 424.213 186.041C418.877 181.449 415.787 174.702 415.072 167.776C414.694 164.093 415.072 160.437 415.907 156.84C416.811 152.952 418.154 149.184 419.247 145.339C420.314 141.597 421.166 137.734 420.985 133.82C420.891 131.717 420.426 129.683 419.866 127.657C419.307 125.649 418.679 123.658 418.369 121.589C418.222 120.61 418.154 119.589 418.188 118.568C418.463 118.568 418.73 118.568 418.997 118.568C418.877 122.104 420.193 125.494 421.037 128.902C421.51 130.799 421.803 132.73 421.82 134.696C421.837 136.584 421.631 138.472 421.286 140.326C419.909 147.88 416.329 154.969 415.804 162.694C415.339 169.466 417.224 176.479 421.39 181.886C422.397 183.191 423.541 184.393 424.798 185.474C426.364 186.813 428.249 187.783 430.134 188.599C432.441 189.586 434.868 190.315 437.33 190.779C439.757 191.234 442.261 191.431 444.723 191.174C446.883 190.942 449.095 190.307 450.834 188.968C451.668 188.333 452.374 187.534 452.899 186.624C453.614 185.414 454.164 183.921 453.803 182.504C453.493 181.268 452.607 180.264 451.866 179.26C450.911 177.964 450.197 176.565 449.706 175.037C448.604 171.578 448.449 167.793 448.647 164.188C448.863 160.145 449.586 155.999 448.191 152.077C447.055 148.884 444.817 146.232 442.631 143.699C440.307 141.013 437.949 138.344 436.357 135.151C434.661 131.752 433.792 128.061 433.654 124.276C433.594 122.731 433.637 121.1 433.534 119.495C433.801 119.529 434.068 119.572 434.334 119.606C434.42 120.937 434.42 122.267 434.455 123.597C434.506 125.486 434.67 127.348 435.083 129.194C435.952 132.988 437.717 136.447 440.127 139.494C442.296 142.232 444.792 144.712 446.763 147.605C447.726 149.021 448.553 150.549 449.086 152.18C449.723 154.12 449.887 156.162 449.844 158.188C449.792 160.377 449.525 162.557 449.431 164.754C449.353 166.574 449.388 168.411 449.577 170.222C449.766 172.067 450.119 173.913 450.782 175.655C451.35 177.14 452.228 178.385 453.166 179.655C453.949 180.719 454.655 181.844 454.724 183.2C454.801 184.659 454.19 186.144 453.407 187.354C450.756 191.465 445.437 192.341 440.893 192.058L440.901 192.032Z" fill="#DEE0F7"></path><path d="M416.174 206.761C419.023 204.117 420.581 200.504 420.856 196.658C421.14 192.659 420.047 188.71 418.257 185.157C416.406 181.483 413.721 178.41 411.449 175.003C409.4 171.921 408.109 168.522 407.825 164.823C407.559 161.304 408.195 157.699 409.788 154.54C410.631 152.867 411.81 151.373 412.869 149.828C414.039 148.111 415.167 146.36 416.139 144.532C416.948 143.013 417.869 141.253 417.938 139.485C417.955 138.936 417.878 138.335 417.456 137.932C416.94 137.442 416.139 137.399 415.468 137.417C412.877 137.494 410.468 138.653 408.333 140.035C405.949 141.58 403.78 143.416 401.422 144.987C399.236 146.446 396.8 147.742 394.123 147.94C391.266 148.146 388.314 146.935 386.326 144.901C383.985 142.506 382.883 139.253 381.377 136.335C380.938 135.494 380.447 134.679 379.914 133.906C380.043 133.606 380.172 133.314 380.301 133.022C380.791 133.7 381.248 134.412 381.661 135.142C382.496 136.636 383.167 138.198 383.924 139.734C384.665 141.245 385.482 142.755 386.61 144.009C387.711 145.227 389.123 146.137 390.672 146.669C393.306 147.571 396 147.038 398.427 145.811C400.966 144.524 403.195 142.712 405.476 141.039C407.619 139.459 409.891 137.854 412.49 137.116C414.082 136.661 416.587 136.043 417.99 137.314C419.066 138.292 418.808 139.966 418.455 141.202C417.895 143.133 416.897 144.944 415.873 146.669C414.866 148.36 413.773 149.983 412.645 151.596C411.191 153.665 409.934 155.75 409.263 158.222C408.299 161.767 408.385 165.596 409.461 169.115C410.648 172.986 413.23 176.093 415.58 179.312C417.947 182.556 419.952 186.101 420.994 189.998C421.958 193.629 422.018 197.534 420.796 201.113C420.21 202.821 419.35 204.426 418.196 205.825C417 207.276 415.528 208.452 413.996 209.533C413.015 210.229 412.017 210.898 411.027 211.568H409.547C411.784 210.005 414.16 208.623 416.165 206.77L416.174 206.761Z" fill="#DEE0F7"></path><path d="M378.648 186.195C378.795 185.912 378.941 185.62 379.079 185.337C380.473 182.453 381.248 179.346 381.273 176.136C381.316 171.372 379.888 166.711 377.555 162.583C377.521 161.99 377.478 161.398 377.443 160.823C379.896 164.72 381.566 169.097 381.988 173.715C382.28 176.839 381.953 180.015 380.929 182.985C380.318 184.762 379.483 186.444 378.545 188.066C378.588 187.465 378.622 186.839 378.648 186.195Z" fill="#DEE0F7"></path><path d="M390.078 197.834C390.379 193.766 391.507 189.886 392.91 186.067C394.364 182.11 396.034 178.196 396.964 174.067C397.678 170.874 397.807 167.501 397.101 164.291C396.439 161.244 394.967 158.3 392.445 156.368C390.896 155.184 389.054 154.514 387.212 153.939C385.344 153.364 383.477 152.823 381.687 152.025C379.991 151.27 378.364 150.343 376.85 149.279C376.85 148.944 376.867 148.618 376.875 148.292C378.106 149.193 379.414 150 380.774 150.695C382.521 151.587 384.346 152.231 386.222 152.798C388.116 153.364 390.044 153.922 391.757 154.926C394.425 156.497 396.266 159.072 397.282 161.948C398.341 164.943 398.573 168.222 398.237 171.363C397.816 175.26 396.456 178.985 395.079 182.633C393.616 186.496 392.066 190.367 391.326 194.444C390.646 198.195 390.646 202.074 391.223 205.842C391.516 207.782 391.954 209.688 392.523 211.567H391.67C391.438 210.769 391.223 209.962 391.034 209.147C390.173 205.456 389.811 201.628 390.087 197.843L390.078 197.834Z" fill="#DEE0F7"></path><path d="M457.478 213.104L375.843 213.087L374.397 205.894V205.774C374.672 202.555 375.344 199.886 375.998 197.302C376.97 193.431 377.986 189.423 377.796 183.191C377.581 175.973 376.635 161.312 376.092 153.21C376.058 152.738 376.419 152.326 376.893 152.3C377.366 152.283 377.779 152.626 377.805 153.098C378.347 161.209 379.285 175.895 379.509 183.14C379.707 189.611 378.666 193.731 377.659 197.714C377.005 200.315 376.385 202.77 376.127 205.782L377.254 211.361L455.8 211.379L456.6 180.779L456.764 180.556C458.691 178.015 459.75 174.985 459.81 171.792L460.249 148.18C461.291 136.249 453.02 125.374 440.135 121.675C429.17 118.525 411.604 119.323 402.102 120.078C392.798 120.816 386.36 124.327 382.436 130.799L368.975 153.69C370.291 153.716 371.884 153.905 373.071 154.54C373.493 154.763 373.648 155.287 373.424 155.699C373.2 156.119 372.675 156.274 372.262 156.051C371.419 155.604 369.973 155.364 368.277 155.407C367.804 155.424 367.365 155.167 367.124 154.763C366.883 154.36 366.883 153.853 367.124 153.441L380.964 129.923C385.198 122.928 392.075 119.151 401.964 118.37C411.578 117.606 429.385 116.799 440.609 120.027C454.293 123.958 463.081 135.571 461.962 148.274L461.523 171.827C461.454 175.286 460.344 178.582 458.296 181.363L457.469 213.087L457.478 213.104Z" fill="#1222B1"></path><path d="M428.275 119.289L423.395 125.46C416.785 133.82 403.341 130.069 402.033 119.503L404.357 94.5688H424.273L428.275 119.28V119.289Z" fill="white"></path><path d="M414.065 130.902C412.886 130.902 411.69 130.739 410.494 130.404C405.398 128.979 401.827 124.842 401.181 119.606V119.512V119.417L403.574 93.7104H425.005L429.188 119.52L424.075 125.992C421.562 129.168 417.921 130.902 414.065 130.902ZM402.903 119.495C403.488 123.992 406.569 127.537 410.958 128.756C415.374 129.983 419.884 128.524 422.724 124.928L427.372 119.048L423.55 95.4271H405.149L402.911 119.486L402.903 119.495Z" fill="#1222B1"></path><path d="M393.521 77.3422C391.507 80.3464 390.449 83.8741 390.345 87.4877C390.078 96.7748 391.154 116.903 405.64 115.512C418.171 114.31 419.953 99.1953 419.746 89.2558C419.6 81.9944 415.374 75.3509 408.704 72.424C403.901 70.3125 398.229 70.3125 393.513 77.3422H393.521Z" fill="white"></path><path d="M404.245 116.439C401.086 116.439 398.375 115.4 396.172 113.349C389.872 107.478 389.278 94.6116 389.484 87.4617C389.596 83.6078 390.741 79.9428 392.806 76.8614C398.1 68.9648 404.563 69.66 409.056 71.6342C415.916 74.6469 420.451 81.5564 420.606 89.2385C420.942 105.778 415.657 115.409 405.717 116.362C405.217 116.413 404.718 116.439 404.236 116.439H404.245ZM394.235 77.8227C392.35 80.6294 391.3 83.9855 391.206 87.5132C391.008 94.3713 391.541 106.68 397.351 112.096C399.511 114.113 402.283 114.971 405.562 114.662C417.585 113.512 419.074 98.2595 418.894 89.2814C418.747 82.2688 414.616 75.9601 408.367 73.2135C402.704 70.7329 397.953 72.2865 394.235 77.8227Z" fill="#1222B1"></path><path d="M398.797 103.032C398.797 103.032 398.763 103.032 398.745 103.032L396.508 102.895C396.146 102.869 395.811 102.68 395.621 102.371C395.432 102.062 395.397 101.684 395.544 101.35L398.41 94.5431C398.591 94.1054 399.098 93.8994 399.537 94.0882C399.976 94.2685 400.183 94.7749 399.993 95.2126L397.454 101.238L398.849 101.324C399.322 101.35 399.684 101.762 399.658 102.234C399.632 102.689 399.253 103.041 398.797 103.041V103.032Z" fill="#1222B1"></path><path d="M401.525 109.332C401.052 109.332 400.665 108.946 400.665 108.474C400.665 108.002 401.052 107.615 401.525 107.615C406.233 107.615 406.758 104.474 406.767 104.44C406.836 103.968 407.275 103.659 407.748 103.719C408.221 103.787 408.54 104.225 408.471 104.697C408.471 104.74 407.696 109.332 401.525 109.332Z" fill="#1222B1"></path><path d="M396.413 90.5347C396.241 90.5347 396.068 90.4832 395.922 90.3802C395.853 90.3287 394.175 89.2215 392.221 90.2429C391.8 90.4575 391.283 90.303 391.059 89.8824C390.836 89.4618 390.999 88.9468 391.421 88.7237C394.33 87.2044 396.8 88.8953 396.903 88.9726C397.291 89.2472 397.385 89.7794 397.11 90.1657C396.946 90.406 396.68 90.5262 396.404 90.5262L396.413 90.5347Z" fill="#1222B1"></path><path d="M409.194 92.1826C408.936 92.1826 408.686 92.071 408.514 91.8564C408.454 91.7791 407.18 90.2427 405.02 90.6462C404.555 90.732 404.099 90.4316 404.013 89.9595C403.927 89.496 404.228 89.0411 404.701 88.9552C407.929 88.3458 409.796 90.6891 409.874 90.7921C410.167 91.1697 410.098 91.7019 409.728 91.9937C409.573 92.1139 409.383 92.174 409.203 92.174L409.194 92.1826Z" fill="#1222B1"></path><path d="M392.962 93.4615C392.936 94.1052 393.349 94.6374 393.883 94.6632C394.416 94.6889 394.872 94.1825 394.907 93.5473C394.933 92.9036 394.519 92.3714 393.986 92.3457C393.452 92.3199 392.996 92.8263 392.962 93.4615Z" fill="#1222B1"></path><path d="M403.961 94.1568C403.772 94.7662 404.038 95.3928 404.546 95.5473C405.063 95.7018 405.631 95.3327 405.82 94.7233C406.009 94.1138 405.743 93.4873 405.235 93.3328C404.718 93.1783 404.15 93.5474 403.961 94.1568Z" fill="#1222B1"></path><path d="M383.4 77.4881C383.554 76.7156 383.821 75.926 384.191 75.1449C385.947 71.4455 389.614 68.9821 393.452 67.5401C400.742 64.8106 408.712 65.2999 416.2 66.8449C419.255 67.4714 423.705 67.9349 426.278 69.7203C427.69 70.6988 428.86 72.1407 429.42 73.7544C429.816 74.8874 430.857 74.9389 431.623 75.72C432.622 76.7414 433.224 78.1233 433.543 79.5052C434.722 84.5264 433.198 89.7708 430.677 94.1397C429.403 96.3542 428.68 99.0236 427.759 101.401C427.458 102.199 425.977 106.697 424.841 104.319C424.17 102.903 423.404 101.375 423.085 99.8304C422.517 97.0408 423.894 92.0969 421.157 90.1227C419.72 89.0841 417.086 89.3416 416.346 91.084C415.718 92.5432 416.209 94.3714 415.675 95.8821C414.78 98.3798 413.635 95.9937 413.575 94.5689C413.472 91.848 414.238 89.0326 414.324 86.3032C414.324 86.2002 409.728 87.2302 409.142 87.2302C407.602 87.2387 406.07 86.8954 404.684 86.2259C403.445 85.6337 402.498 84.1745 401.353 83.6681C401.345 83.6681 401.327 83.6595 401.319 83.6509C398.375 85.3847 395.234 86.8267 391.851 87.0413C385.947 87.419 382.332 82.6982 383.4 77.471V77.4881Z" fill="#1222B1"></path><path d="M416.415 93.8735C417 95.6931 418.954 96.6974 420.779 96.1137C422.603 95.5301 423.61 93.5817 423.025 91.762C422.44 89.9423 420.486 88.9381 418.661 89.5218C416.837 90.1054 415.83 92.0538 416.415 93.8735Z" fill="white"></path><path d="M419.729 97.1437C419.634 97.1437 419.548 97.1437 419.453 97.1437C418.98 97.1094 418.618 96.706 418.653 96.2339C418.687 95.7618 419.075 95.4099 419.565 95.4357C419.884 95.4528 420.211 95.4185 420.52 95.3155C421.889 94.8777 422.646 93.41 422.216 92.0453C422.001 91.3843 421.545 90.8436 420.925 90.526C420.305 90.2084 419.6 90.1483 418.937 90.3629C418.481 90.5088 417.999 90.2599 417.852 89.805C417.706 89.3501 417.956 88.8694 418.412 88.7235C419.513 88.3716 420.684 88.466 421.717 88.9982C422.75 89.5304 423.507 90.423 423.86 91.5217C424.583 93.7877 423.326 96.2253 421.054 96.9549C420.624 97.0922 420.185 97.1609 419.737 97.1609L419.729 97.1437Z" fill="#1222B1"></path><path d="M365.282 163.029C365.231 163.029 365.17 163.029 365.11 163.012C364.645 162.918 364.344 162.471 364.439 161.999C365.093 158.755 364.499 157.261 364.49 157.244C364.31 156.806 364.516 156.308 364.947 156.12C365.377 155.939 365.876 156.12 366.065 156.557C366.152 156.746 366.883 158.549 366.126 162.334C366.048 162.746 365.687 163.021 365.282 163.021V163.029Z" fill="#1222B1"></path><path d="M457.452 181.097L456.635 212.246L410.425 212.237L457.452 181.097Z" fill="#1222B1"></path><path d="M322.033 185.629H453.855C464.648 185.629 473.409 194.367 473.409 205.13V320.901H302.47V205.13C302.47 194.367 311.232 185.629 322.025 185.629H322.033Z" fill="white"></path><path d="M453.596 185.629H322.309C311.361 185.629 302.487 194.478 302.487 205.396V212.958H473.426V205.396C473.426 194.478 464.553 185.629 453.605 185.629H453.596Z" fill="#DEE0F7"></path><path d="M316.06 204.976C317.377 204.976 318.444 203.911 318.444 202.598C318.444 201.285 317.377 200.22 316.06 200.22C314.743 200.22 313.676 201.285 313.676 202.598C313.676 203.911 314.743 204.976 316.06 204.976Z" fill="white"></path><path d="M325.14 204.976C326.457 204.976 327.524 203.911 327.524 202.598C327.524 201.285 326.457 200.22 325.14 200.22C323.824 200.22 322.756 201.285 322.756 202.598C322.756 203.911 323.824 204.976 325.14 204.976Z" fill="white"></path><path d="M336.596 202.598C336.596 203.911 335.529 204.976 334.212 204.976C332.895 204.976 331.828 203.911 331.828 202.598C331.828 201.285 332.895 200.22 334.212 200.22C335.529 200.22 336.596 201.285 336.596 202.598Z" fill="white"></path><path d="M445.317 234.356H325.734C318.295 234.356 312.265 240.37 312.265 247.789V288.8C312.265 296.218 318.295 302.233 325.734 302.233H445.317C452.756 302.233 458.786 296.218 458.786 288.8V247.789C458.786 240.37 452.756 234.356 445.317 234.356Z" fill="#DEE0F7"></path><path d="M473.418 320.901C472.944 320.901 472.557 320.515 472.557 320.043V205.13C472.557 194.847 464.165 186.487 453.863 186.487H322.042C311.731 186.487 303.348 194.856 303.348 205.13V320.043C303.348 320.515 302.961 320.901 302.487 320.901C302.014 320.901 301.626 320.515 301.626 320.043V205.13C301.626 193.903 310.784 184.771 322.042 184.771H453.863C465.121 184.771 474.278 193.903 474.278 205.13V320.043C474.278 320.515 473.891 320.901 473.418 320.901Z" fill="#1222B1"></path><path d="M437.967 213.911L302.479 213.816C302.005 213.816 301.618 213.43 301.618 212.958C301.618 212.486 302.005 212.1 302.479 212.1L437.967 212.194C438.44 212.194 438.827 212.58 438.827 213.052C438.827 213.524 438.44 213.911 437.967 213.911Z" fill="#1222B1"></path><path d="M431.408 164.789L421.906 182.324C421.149 183.783 419.703 184.753 418.059 184.899C401.147 186.436 391.989 188.066 375.412 190.126C375.412 190.126 372.607 190.684 371.66 190.813C360.807 192.247 339.927 201.173 339.927 201.173C336.45 202.392 331.836 206.246 330.279 208.967L329.762 210.186C329.504 210.804 329.977 211.473 330.64 211.447L366.375 211.164L376.531 212.228C376.531 212.228 376.557 212.237 376.592 212.237L376.686 212.254V212.237C379.983 212.237 426.296 212.254 426.296 212.254C434.395 212.254 440.187 208.229 446.418 200.899C446.418 200.899 459.268 185.08 457.306 178.488C455.223 171.466 441.659 163.106 431.391 164.789H431.408Z" fill="white"></path><path d="M377.616 213.267L376.531 213.095H375.808L375.791 213.01L366.341 212.022L330.649 212.306C330.072 212.34 329.495 212.057 329.151 211.559C328.798 211.061 328.729 210.426 328.97 209.859L329.53 208.555C331.268 205.525 336.079 201.628 339.634 200.384C340.434 200.04 360.695 191.414 371.539 189.981C372.443 189.86 375.214 189.311 375.24 189.303C380.86 188.599 385.525 187.964 390.044 187.354C398.995 186.135 406.724 185.088 417.981 184.058C419.333 183.938 420.512 183.14 421.14 181.938L434.067 157.673C434.291 157.253 434.808 157.098 435.229 157.321C435.651 157.544 435.806 158.059 435.582 158.48L422.664 182.745C421.768 184.462 420.073 185.603 418.136 185.775C406.913 186.796 399.201 187.843 390.276 189.062C385.758 189.68 381.084 190.315 375.516 191.002C375.464 191.019 372.727 191.56 371.763 191.689C361.16 193.088 340.469 201.903 340.262 201.989C337.104 203.096 332.585 206.735 331.053 209.37L330.554 210.538H330.571L330.631 210.606L366.418 210.323L376.695 211.396C379.991 211.396 426.304 211.413 426.304 211.413C433.465 211.413 439.102 208.211 445.764 200.358C449.241 196.066 457.986 183.792 456.488 178.745C455.145 174.23 448.424 168.9 441.185 166.608C440.729 166.462 440.48 165.982 440.626 165.527C440.772 165.072 441.254 164.823 441.71 164.969C449.568 167.449 456.626 173.166 458.141 178.256C460.198 185.191 447.632 200.787 447.09 201.448C440.049 209.748 434.024 213.121 426.304 213.121C426.304 213.121 384.897 213.113 377.598 213.104V213.276L377.616 213.267Z" fill="#1222B1"></path><path d="M425.529 191.157C425.056 191.157 424.669 190.77 424.669 190.298C424.669 186.058 420.71 185.26 420.537 185.225C420.073 185.14 419.763 184.693 419.849 184.221C419.935 183.758 420.382 183.449 420.847 183.535C422.767 183.886 426.39 185.74 426.39 190.298C426.39 190.77 426.003 191.157 425.529 191.157Z" fill="#1222B1"></path><path d="M338.799 212.211C338.662 212.211 338.515 212.177 338.378 212.1C337.964 211.868 337.81 211.344 338.042 210.932L339.565 208.203C340.4 206.709 341.915 205.705 343.611 205.508L355.557 204.126C356.03 204.074 356.452 204.409 356.512 204.881C356.564 205.353 356.228 205.774 355.755 205.834L343.808 207.216C342.655 207.353 341.631 208.031 341.063 209.044L339.54 211.774C339.385 212.057 339.092 212.211 338.791 212.211H338.799Z" fill="#1222B1"></path><path d="M330.812 94.5774C330.812 111.529 317.033 125.28 300.026 125.28C283.019 125.28 269.239 111.538 269.239 94.5774C269.239 77.6168 283.019 63.875 300.026 63.875C317.033 63.875 330.812 77.6168 330.812 94.5774Z" fill="#374BFF"></path><path d="M303.176 106.886H294.207C292.142 106.886 290.463 105.212 290.463 103.152V101.238H295.791V101.573H303.176C304.596 101.573 305.749 100.423 305.749 99.0064C305.749 98.0794 305 97.3326 304.071 97.3326H297.461C293.605 97.3326 290.463 94.1997 290.463 90.3544V89.4017C290.463 85.0585 294.009 81.5222 298.364 81.5222H307.333C309.398 81.5222 311.077 83.196 311.077 85.2559V87.4275H305.749V86.8353H298.364C296.944 86.8353 295.791 87.9854 295.791 89.4017V90.3544C295.791 91.2814 296.54 92.0282 297.461 92.0282H304.071C307.927 92.0282 311.068 95.161 311.068 99.0064C311.068 103.349 307.522 106.886 303.167 106.886H303.176Z" fill="white"></path><path d="M303.442 78.9387H298.115V110.208H303.442V78.9387Z" fill="white"></path><path d="M271.503 249.9C272.306 249.9 272.957 249.251 272.957 248.45C272.957 247.649 272.306 246.999 271.503 246.999C270.7 246.999 270.048 247.649 270.048 248.45C270.048 249.251 270.7 249.9 271.503 249.9Z" fill="#374BFF"></path><path d="M289.603 227.953C291.509 227.953 293.054 226.412 293.054 224.511C293.054 222.61 291.509 221.069 289.603 221.069C287.697 221.069 286.151 222.61 286.151 224.511C286.151 226.412 287.697 227.953 289.603 227.953Z" fill="#374BFF"></path><path d="M309.769 246.999C311.218 246.999 312.394 245.827 312.394 244.381C312.394 242.936 311.218 241.763 309.769 241.763C308.319 241.763 307.144 242.936 307.144 244.381C307.144 245.827 308.319 246.999 309.769 246.999Z" fill="#374BFF"></path><path d="M310.104 161.69H275.987C270.796 161.69 266.588 165.886 266.588 171.063V205.087C266.588 210.264 270.796 214.46 275.987 214.46H310.104C315.295 214.46 319.503 210.264 319.503 205.087V171.063C319.503 165.886 315.295 161.69 310.104 161.69Z" fill="#1222B1"></path><path d="M308.443 185.225C308.443 184.556 307.901 184.015 307.23 184.024H304.648C304.217 184.024 303.856 183.749 303.701 183.354C303.606 183.114 303.511 182.874 303.4 182.642C303.219 182.256 303.288 181.801 303.589 181.5L305.414 179.681C305.887 179.208 305.887 178.445 305.414 177.973L302.436 175.003C301.962 174.531 301.196 174.531 300.723 175.003L298.881 176.84C298.588 177.131 298.158 177.209 297.779 177.054C297.512 176.943 297.228 176.831 296.987 176.737C296.6 176.591 296.351 176.222 296.351 175.81V173.209C296.351 172.539 295.808 171.999 295.137 171.999H290.928C290.257 171.999 289.715 172.539 289.715 173.209V175.784C289.715 176.213 289.439 176.573 289.035 176.728C288.785 176.822 288.536 176.925 288.286 177.037C287.899 177.217 287.443 177.157 287.141 176.848L285.308 175.028C284.835 174.556 284.069 174.556 283.595 175.028L280.626 178.007C280.153 178.479 280.161 179.243 280.626 179.715L282.476 181.543C282.769 181.835 282.847 182.264 282.692 182.642C282.58 182.908 282.468 183.183 282.373 183.431C282.227 183.818 281.857 184.067 281.444 184.067H278.836C278.164 184.067 277.631 184.616 277.631 185.285V189.483C277.639 190.152 278.182 190.684 278.853 190.684H281.435C281.865 190.684 282.227 190.95 282.382 191.354C282.476 191.594 282.571 191.835 282.683 192.066C282.864 192.452 282.795 192.907 282.494 193.208L280.669 195.036C280.196 195.508 280.196 196.272 280.669 196.744L283.656 199.705C284.129 200.177 284.895 200.177 285.368 199.705L287.21 197.869C287.503 197.577 287.933 197.499 288.312 197.654C288.57 197.766 288.854 197.877 289.104 197.972C289.491 198.117 289.741 198.487 289.741 198.899V201.499C289.741 202.169 290.291 202.71 290.954 202.701H295.163C295.834 202.701 296.368 202.152 296.368 201.482V198.907C296.368 198.478 296.643 198.117 297.039 197.963C297.28 197.869 297.521 197.774 297.753 197.663C298.141 197.482 298.597 197.551 298.898 197.851L300.731 199.671C301.205 200.143 301.971 200.143 302.444 199.671L305.422 196.701C305.895 196.229 305.895 195.465 305.422 194.993L303.58 193.156C303.288 192.864 303.21 192.435 303.365 192.058C303.632 191.431 303.907 190.684 303.925 190.641H307.23C307.901 190.641 308.443 190.101 308.434 189.431V185.234L308.443 185.225ZM298.218 190.315C297.34 191.834 295.834 192.873 294.156 193.182C293.106 193.379 291.987 193.302 290.902 192.882C288.269 191.869 286.668 189.028 287.184 186.264C287.882 182.547 291.737 180.453 295.206 181.783C295.369 181.844 295.533 181.921 295.688 181.998C297.719 183.002 299.027 185.131 299.019 187.371C299.019 187.715 298.984 188.066 298.924 188.41C298.795 189.105 298.554 189.749 298.218 190.315Z" fill="white"></path><path d="M452.839 221.524H362.752C355.313 221.524 349.282 227.538 349.282 234.957V273.908C349.282 281.327 355.313 287.341 362.752 287.341H452.839C460.278 287.341 466.308 281.327 466.308 273.908V234.957C466.308 227.538 460.278 221.524 452.839 221.524Z" fill="#374BFF"></path><path d="M340.478 273.616C350.599 275.659 361.237 274.337 370.576 269.934C375.008 267.839 378.89 264.921 382.806 262.02C386.421 259.351 390.182 256.561 394.502 255.136C396.551 254.458 398.677 254.141 400.837 254.295C402.963 254.45 405.046 255.136 406.965 256.02C411.148 257.951 414.9 260.707 419.221 262.38C423.714 264.114 428.508 264.037 433.009 262.355C437.708 260.604 441.797 257.642 445.799 254.69C449.56 251.909 453.33 249.179 457.753 247.531C461.601 246.098 466.102 245.265 470.018 246.922C470.956 247.317 471.86 247.866 472.643 248.518C473.177 248.956 473.934 249.042 474.459 248.518C474.915 248.064 474.993 247.154 474.459 246.707C466.825 240.416 456.11 244.441 448.863 249.317C444.757 252.081 440.996 255.308 436.693 257.78C432.725 260.063 428.129 261.771 423.481 260.947C419.006 260.157 415.176 257.531 411.268 255.368C407.206 253.119 402.834 251.308 398.091 251.78C388.546 252.716 381.601 260.406 373.881 265.222C365.274 270.586 354.868 272.869 344.79 271.736C343.567 271.599 342.363 271.401 341.158 271.153C340.478 271.015 339.772 271.35 339.574 272.045C339.402 272.68 339.789 273.479 340.469 273.625L340.478 273.616Z" fill="white"></path><path d="M386.429 229.129H359.103V233.051H386.429V229.129Z" fill="#1222B1"></path><path d="M409.736 235.403H359.103V239.326H409.736V235.403Z" fill="#1222B1"></path><path d="M243.634 91.0154H213.476C206.55 91.0154 200.936 96.6144 200.936 103.521V133.597C200.936 140.504 206.55 146.103 213.476 146.103H243.634C250.56 146.103 256.174 140.504 256.174 133.597V103.521C256.174 96.6144 250.56 91.0154 243.634 91.0154Z" fill="#1222B1"></path><path d="M228.736 134.292C237.292 134.292 244.228 127.375 244.228 118.842C244.228 110.309 237.292 103.392 228.736 103.392C220.18 103.392 213.244 110.309 213.244 118.842C213.244 127.375 220.18 134.292 228.736 134.292Z" fill="white"></path><path d="M228.736 99.6416V118.834H247.981C247.981 108.233 239.365 99.6416 228.736 99.6416Z" fill="#374BFF"></path><path d="M500.684 237.12C498.231 237.12 496.243 239.103 496.243 241.549C496.243 243.995 498.231 245.978 500.684 245.978C503.137 245.978 505.125 243.995 505.125 241.549C505.125 239.103 503.137 237.12 500.684 237.12ZM500.684 244.081C499.281 244.081 498.145 242.948 498.145 241.549C498.145 240.15 499.281 239.017 500.684 239.017C502.087 239.017 503.223 240.15 503.223 241.549C503.223 242.948 502.087 244.081 500.684 244.081Z" fill="#DEE0F7"></path><path d="M159.391 142.489C156.938 142.489 154.95 144.472 154.95 146.918C154.95 149.364 156.938 151.347 159.391 151.347C161.844 151.347 163.832 149.364 163.832 146.918C163.832 144.472 161.844 142.489 159.391 142.489ZM159.391 149.45C157.988 149.45 156.852 148.317 156.852 146.918C156.852 145.519 157.988 144.386 159.391 144.386C160.794 144.386 161.93 145.519 161.93 146.918C161.93 148.317 160.794 149.45 159.391 149.45Z" fill="#DEE0F7"></path><path d="M144.14 305.675C145.818 305.675 147.178 304.318 147.178 302.645C147.178 300.971 145.818 299.615 144.14 299.615C142.462 299.615 141.102 300.971 141.102 302.645C141.102 304.318 142.462 305.675 144.14 305.675Z" fill="#DEE0F7"></path><path d="M187.234 145.828C188.912 145.828 190.272 144.472 190.272 142.798C190.272 141.125 188.912 139.768 187.234 139.768C185.556 139.768 184.196 141.125 184.196 142.798C184.196 144.472 185.556 145.828 187.234 145.828Z" fill="#DEE0F7"></path><path d="M261.898 71.1879C261.898 72.8616 260.538 74.2178 258.859 74.2178C257.181 74.2178 255.821 72.8616 255.821 71.1879C255.821 69.5141 257.181 68.158 258.859 68.158C260.538 68.158 261.898 69.5141 261.898 71.1879Z" fill="#DEE0F7"></path><path d="M180.71 112.654L177.793 111.066L179.385 108.156C179.798 107.401 179.514 106.465 178.765 106.053C178.008 105.641 177.07 105.924 176.656 106.671L175.064 109.581L172.146 107.993C171.389 107.581 170.451 107.864 170.038 108.611C169.625 109.366 169.909 110.302 170.657 110.714L173.575 112.302L171.983 115.212C171.57 115.967 171.854 116.902 172.603 117.314C173.36 117.726 174.298 117.443 174.711 116.696L176.304 113.787L179.221 115.375C179.979 115.787 180.917 115.503 181.33 114.757C181.743 114.001 181.459 113.066 180.71 112.654Z" fill="#DEE0F7"></path><path d="M127.727 266.973L124.809 265.385L126.401 262.475C126.814 261.72 126.53 260.784 125.782 260.372C125.024 259.96 124.086 260.243 123.673 260.99L122.081 263.9L119.163 262.312C118.406 261.9 117.468 262.183 117.054 262.93C116.641 263.685 116.925 264.621 117.674 265.033L120.592 266.621L119 269.53C118.586 270.286 118.87 271.221 119.619 271.633C120.377 272.045 121.315 271.762 121.728 271.015L123.32 268.106L126.238 269.693C126.995 270.105 127.933 269.822 128.346 269.075C128.76 268.32 128.476 267.385 127.727 266.973Z" fill="#DEE0F7"></path><path d="M515.298 212.314L512.38 210.726L513.973 207.816C514.386 207.061 514.102 206.126 513.353 205.714C512.596 205.302 511.657 205.585 511.244 206.332L509.652 209.241L506.734 207.653C505.977 207.241 505.039 207.525 504.626 208.271C504.213 209.027 504.497 209.962 505.245 210.374L508.163 211.962L506.571 214.872C506.158 215.627 506.442 216.563 507.191 216.975C507.948 217.387 508.886 217.104 509.299 216.357L510.891 213.447L513.809 215.035C514.567 215.447 515.505 215.164 515.918 214.417C516.331 213.662 516.047 212.726 515.298 212.314Z" fill="#DEE0F7"></path><path d="M204.026 179.045C209.689 169.029 226.937 150.3 240.097 159.57C246.664 164.196 249.977 174.273 247.886 181.852C247.215 184.307 245.932 186.547 245.158 188.968C244.176 192.023 244.039 195.345 244.762 198.478C247.344 209.739 259.884 216.305 263.499 227.283C266.451 236.244 262.354 246.664 254.78 252.312C247.206 257.96 236.843 259.127 227.72 256.638C220.224 254.587 211.316 251.462 207.176 244.519C199.808 232.159 198.354 217.232 198.104 202.864C198.044 199.353 198.053 195.817 198.698 192.367C199.585 187.646 201.659 183.225 204.017 179.045H204.026Z" fill="#1222B1"></path><path d="M303.417 284.045L281.082 283.315C279.163 283.255 277.399 282.217 276.417 280.569L264.902 261.248L235.312 278.783L250.055 303.486C254.901 311.597 263.869 316.344 273.319 315.794L303.417 314.035V284.045Z" fill="white"></path><path d="M174.178 199.13C170.761 202.933 167.37 206.726 165.734 211.499C163.806 217.129 164.684 223.472 167.275 228.837C169.866 234.202 174.04 238.665 178.679 242.416C181.029 244.313 183.568 246.072 186.46 246.913C195.204 249.454 208.682 248.244 211.462 237.566C212.194 234.751 211.402 230.803 211.247 227.893C211.015 223.653 210.36 219.447 209.526 215.284C206.935 202.332 207.245 188.633 201.298 176.642C200.093 174.213 198.363 171.621 195.677 171.217C193.207 170.848 190.875 172.522 189.265 174.436C185.332 179.114 183.989 185.414 180.857 190.659C179.023 193.731 176.596 196.435 174.178 199.13Z" fill="#1222B1"></path><path d="M163.083 320.609C163.368 319.313 163.609 318.009 163.824 316.695C164.762 310.927 164.71 305.048 164.65 299.203C164.616 295.211 164.486 291.263 164.908 287.298C165.33 283.289 165.752 279.281 166.173 275.272C166.836 268.929 167.507 262.595 168.17 256.252C168.437 253.72 168.557 251.128 168.971 248.613C171.492 233.472 184.532 222.314 199.912 222.125L214.216 221.945C214.586 221.945 214.948 221.945 215.309 221.945L229.356 221.987C242.042 222.46 253.205 230.468 257.706 242.304L264.824 261.041L244.624 273.298L239.899 299.872L239.064 320.541L163.083 320.601V320.609Z" fill="#374BFF"></path><path d="M162.025 321.468L162.248 320.429C162.524 319.133 162.774 317.837 162.98 316.558C163.91 310.842 163.849 304.936 163.798 299.211L163.78 297.546C163.737 294.164 163.694 290.671 164.056 287.203L167.318 256.158C167.404 255.325 167.481 254.475 167.55 253.634C167.697 251.935 167.843 250.184 168.127 248.476C170.718 232.906 184.084 221.464 199.912 221.267L214.216 221.086C214.586 221.086 214.956 221.086 215.326 221.086L229.373 221.129C242.464 221.619 253.893 229.816 258.524 242.004L265.891 261.411L253.343 269.024C252.938 269.273 252.404 269.144 252.163 268.741C251.914 268.337 252.043 267.805 252.447 267.565L263.774 260.69L256.914 242.613C252.533 231.069 241.706 223.309 229.338 222.846L215.318 222.803C214.956 222.803 214.595 222.803 214.233 222.803L199.929 222.983C184.945 223.172 172.275 234.004 169.822 248.759C169.547 250.398 169.401 252.124 169.263 253.78C169.194 254.638 169.117 255.497 169.031 256.338L165.769 287.384C165.416 290.748 165.459 294.044 165.502 297.521L165.519 299.194C165.571 304.988 165.631 310.971 164.684 316.833C164.529 317.794 164.349 318.773 164.151 319.751L238.246 319.691L239.055 299.735L242.481 280.44C242.567 279.976 243.006 279.659 243.479 279.745C243.944 279.83 244.262 280.277 244.176 280.74L240.759 299.984L239.89 321.416L162.016 321.476L162.025 321.468Z" fill="#1222B1"></path><path d="M200.488 229.241H223.761L220.318 192.29H202.847L200.488 229.241Z" fill="white"></path><path d="M211.325 243.72C206.711 243.72 173.765 245.566 169.797 244.982C169.797 244.982 171.183 234.476 183.129 227.155C188 224.03 193.767 222.202 199.912 222.125L214.216 221.945C214.586 221.945 214.948 221.945 215.309 221.945L229.356 221.987C233.969 222.159 238.376 223.335 242.335 225.318C237.911 237.721 225.724 243.72 211.316 243.72H211.325Z" fill="white"></path><path d="M172.955 245.952C171.398 245.952 170.261 245.918 169.676 245.832L168.841 245.712L168.953 244.871C169.013 244.424 170.528 233.875 182.69 226.425C187.613 223.266 193.302 221.49 199.163 221.284L201.203 204.684C201.263 204.212 201.702 203.877 202.158 203.937C202.631 203.997 202.967 204.426 202.907 204.89L200.686 222.975H199.938C194.128 223.052 188.482 224.751 183.611 227.876C174.16 233.669 171.501 241.575 170.855 244.201C175.047 244.39 188.749 243.789 198.982 243.334C204.998 243.068 209.749 242.862 211.342 242.862C226.162 242.862 237.024 236.639 241.276 225.764C237.386 224.116 230.044 222.957 229.312 222.846L222.255 222.794V218.649C222.255 218.177 222.642 217.79 223.116 217.79C223.589 217.79 223.976 218.177 223.976 218.649V221.086L229.51 221.138C229.88 221.198 238.711 222.528 242.748 224.554L243.428 224.897L243.169 225.61C238.866 237.669 227.264 244.587 211.342 244.587C209.792 244.587 204.818 244.802 199.06 245.059C189.739 245.471 178.627 245.961 172.973 245.961L172.955 245.952Z" fill="#1222B1"></path><path d="M222.203 213.061C222.134 212.855 220.99 212.838 220.774 212.786C219.63 212.52 218.588 211.911 217.573 211.344C216.746 210.881 214.775 210.04 214.319 209.198C214.483 209.507 214.664 209.808 214.844 210.108C216.471 212.778 219.32 215.868 222.539 216.563C222.47 215.868 222.41 215.172 222.341 214.477C222.298 214.031 222.306 213.542 222.212 213.104C222.212 213.087 222.212 213.078 222.203 213.061Z" fill="#1222B1"></path><path d="M183.602 282.079L244.271 320.901L194.154 320.73L183.602 282.079Z" fill="#1222B1"></path><path d="M320.734 285.916C320.045 285.65 319.296 286.053 318.66 286.431C315.682 288.165 311.895 289.512 308.891 287.821C306.076 286.242 302.169 283.856 302.944 280.731C302.944 280.731 303.735 272.234 302.565 273.624C300.792 275.736 299.828 279.487 298.425 282.113C296.876 285.014 294.69 287.323 291.72 287.907L228.917 285.864C226.997 285.804 225.233 284.766 224.252 283.118L212.736 263.797C205.833 270.929 197.502 276.517 188.276 280.208L183.585 282.079L197.881 306.035C202.726 314.146 211.695 318.893 221.145 318.343L288.777 314.386C289.267 314.326 298.33 313.065 302.591 311.339C307.195 309.477 311.645 307.202 315.845 304.559C316.955 303.863 318.109 303.074 318.66 301.881C319.21 300.688 319.064 299.297 319.271 298.001C319.589 296.027 320.717 294.284 321.491 292.439C322.266 290.594 322.653 288.345 321.543 286.671C321.336 286.353 321.061 286.062 320.708 285.924L320.734 285.916Z" fill="white"></path><path d="M219.656 319.245C210.438 319.245 201.917 314.447 197.157 306.473L182.345 281.65L187.974 279.401C188.413 279.221 188.912 279.435 189.093 279.882C189.274 280.319 189.058 280.817 188.611 280.998L184.858 282.5L198.638 305.597C203.337 313.468 211.944 318.026 221.119 317.485L288.716 313.52C289.534 313.434 298.304 312.155 302.298 310.533C306.851 308.696 311.266 306.43 315.423 303.82C316.482 303.16 317.463 302.481 317.91 301.512C318.212 300.859 318.263 300.087 318.315 299.263C318.349 298.808 318.375 298.336 318.453 297.855C318.694 296.353 319.339 295.014 319.976 293.718C320.234 293.177 320.501 292.645 320.725 292.096C321.215 290.92 321.895 288.705 320.854 287.135C320.665 286.851 320.518 286.748 320.432 286.714C320.097 286.585 319.468 286.946 319.098 287.16C314.889 289.615 311.214 290.104 308.469 288.559C305.921 287.126 301.187 284.465 302.091 280.577C302.255 278.809 302.358 276.817 302.341 275.47C301.73 276.551 301.205 277.856 300.688 279.118C300.223 280.277 299.733 281.47 299.182 282.5C297.289 286.053 294.836 288.147 291.884 288.731L291.789 288.748H291.694L228.891 286.705C226.661 286.637 224.656 285.452 223.511 283.538L212.572 265.179C209.431 268.32 205.988 271.178 202.322 273.685C201.926 273.951 201.392 273.856 201.125 273.461C200.858 273.067 200.953 272.534 201.349 272.268C205.231 269.616 208.854 266.56 212.125 263.187L212.908 262.38L224.992 282.671C225.827 284.079 227.307 284.946 228.942 284.997L291.643 287.032C294.018 286.525 296.041 284.731 297.659 281.701C298.166 280.749 298.614 279.65 299.087 278.483C299.879 276.517 300.705 274.483 301.902 273.067C302.427 272.44 303.012 272.612 303.176 272.68C303.701 272.895 304.501 273.23 303.795 280.8L303.769 280.929C303.184 283.263 306.24 285.341 309.304 287.066C312.049 288.611 315.664 287.169 318.22 285.675C318.857 285.306 319.924 284.68 321.035 285.1C321.508 285.281 321.93 285.641 322.283 286.173C323.376 287.83 323.384 290.164 322.3 292.739C322.059 293.315 321.783 293.881 321.508 294.447C320.906 295.683 320.338 296.859 320.14 298.104C320.079 298.499 320.045 298.919 320.019 299.357C319.959 300.301 319.89 301.28 319.46 302.215C318.814 303.606 317.558 304.481 316.327 305.254C312.084 307.923 307.582 310.224 302.935 312.103C299.139 313.64 291.806 314.781 289.56 315.107V315.159L288.845 315.202L221.213 319.159C220.688 319.193 220.172 319.202 219.647 319.202L219.656 319.245Z" fill="#1222B1"></path><path d="M209.474 193.534C209.086 196.341 206.487 198.306 203.673 197.92C200.858 197.534 198.887 194.942 199.275 192.135C199.662 189.328 202.261 187.363 205.076 187.749C207.89 188.135 209.861 190.727 209.474 193.534Z" fill="white"></path><path d="M204.379 198.821C204.103 198.821 203.837 198.804 203.561 198.761C200.282 198.315 197.975 195.285 198.432 192.015C198.879 188.744 201.917 186.436 205.196 186.899C208.476 187.345 210.782 190.375 210.326 193.646C209.913 196.641 207.331 198.821 204.379 198.821ZM204.379 188.556C202.27 188.556 200.428 190.109 200.136 192.246C199.817 194.581 201.453 196.744 203.794 197.062C206.135 197.379 208.304 195.74 208.622 193.414C208.94 191.079 207.305 188.916 204.964 188.599C204.766 188.573 204.568 188.556 204.379 188.556Z" fill="#1222B1"></path><path d="M206.332 180.118C206.332 180.118 196.607 212.949 220.189 218.22C243.772 223.481 239.976 178.865 239.976 178.865C239.976 178.865 226.05 157.673 206.332 180.118Z" fill="white"></path><path d="M223.881 219.507C222.642 219.507 221.351 219.353 220 219.052C210.171 216.863 204.508 209.585 203.604 198.023C203.569 197.551 203.922 197.139 204.396 197.105C204.869 197.07 205.282 197.422 205.317 197.894C206.16 208.786 211.229 215.344 220.37 217.378C224.716 218.348 228.366 217.576 231.223 215.087C241.31 206.306 239.133 179.209 239.107 178.934C239.064 178.462 239.417 178.05 239.89 178.007C240.363 177.955 240.777 178.316 240.82 178.788C240.914 179.938 243.092 207.027 232.35 216.374C229.966 218.451 227.118 219.498 223.864 219.498L223.881 219.507Z" fill="#1222B1"></path><path d="M226.791 207.482C226.662 207.482 226.541 207.465 226.412 207.422L224.148 206.632C223.701 206.477 223.46 205.988 223.615 205.542C223.77 205.096 224.26 204.855 224.708 205.01L226.214 205.533L226.266 202.28C226.266 201.808 226.679 201.431 227.144 201.439C227.617 201.439 227.996 201.834 227.987 202.315L227.918 206.366C227.918 206.718 227.738 207.061 227.436 207.276C227.238 207.413 227.006 207.482 226.774 207.482H226.791Z" fill="#1222B1"></path><path d="M237.523 193.955C237.368 193.955 237.205 193.912 237.067 193.817C235.036 192.53 233.134 193.594 233.048 193.637C232.635 193.869 232.11 193.731 231.877 193.319C231.636 192.907 231.774 192.392 232.178 192.152C232.299 192.083 235.053 190.504 237.988 192.367C238.393 192.624 238.504 193.148 238.255 193.551C238.091 193.809 237.816 193.946 237.523 193.946V193.955Z" fill="#1222B1"></path><path d="M221.532 193.088C221.386 193.088 221.24 193.053 221.102 192.976C218.993 191.757 217.1 192.942 217.082 192.959C216.687 193.216 216.153 193.096 215.895 192.701C215.637 192.306 215.757 191.774 216.153 191.517C216.265 191.44 218.959 189.757 221.963 191.5C222.376 191.74 222.513 192.264 222.272 192.676C222.109 192.95 221.825 193.105 221.524 193.105L221.532 193.088Z" fill="#1222B1"></path><path d="M235.957 197.233C235.931 197.92 235.441 198.452 234.864 198.435C234.287 198.409 233.848 197.843 233.874 197.156C233.9 196.469 234.391 195.937 234.967 195.955C235.544 195.98 235.983 196.555 235.957 197.233Z" fill="#1222B1"></path><path d="M220.895 196.942C220.869 197.628 220.379 198.16 219.802 198.143C219.225 198.118 218.786 197.551 218.812 196.864C218.838 196.178 219.329 195.646 219.905 195.663C220.482 195.689 220.921 196.255 220.895 196.942Z" fill="#1222B1"></path><path d="M222.556 211.816C221.885 212.606 220.637 212.658 219.768 211.928C218.898 211.198 218.743 209.962 219.423 209.164C220.103 208.366 221.343 208.323 222.212 209.053C223.081 209.782 223.236 211.018 222.556 211.816Z" fill="#1222B1"></path><path d="M223.098 212.512C223.098 212.512 223.047 212.512 223.021 212.512C221.583 212.392 220.499 211.885 219.802 211.018C218.855 209.842 219.001 208.486 219.019 208.34C219.079 207.868 219.509 207.542 219.983 207.602C220.456 207.662 220.783 208.091 220.723 208.555C220.723 208.589 220.654 209.362 221.153 209.962C221.549 210.443 222.229 210.726 223.167 210.812C223.64 210.855 223.993 211.267 223.95 211.739C223.916 212.186 223.537 212.52 223.09 212.52L223.098 212.512Z" fill="#1222B1"></path><path d="M187.329 197.517C186.563 195.148 185.358 193.002 185.212 190.504C184.798 183.071 186.253 174.797 189.601 168.059C193.422 160.377 200.007 155.261 208.536 153.107C215.585 151.33 226.455 152.231 232.11 157.107C239.142 163.175 239.288 173.604 229.812 177.561C223.245 180.299 212.779 174.265 211.032 184.53C210.541 187.406 211.049 190.393 210.395 193.242C209.698 196.281 207.735 198.899 205.635 201.276C203.277 203.954 200.497 206.546 196.943 207.43C194.429 208.057 190.496 207.542 188.921 205.302C187.535 203.328 188.078 199.877 187.32 197.525L187.329 197.517Z" fill="#1222B1"></path><path d="M277.898 283.058C277.665 283.058 277.433 282.963 277.261 282.774L275.686 281.006L264.093 261.479C263.852 261.067 263.989 260.544 264.394 260.303C264.807 260.063 265.332 260.2 265.573 260.604L277.123 280.054L278.543 281.616C278.862 281.968 278.836 282.508 278.483 282.826C278.32 282.972 278.113 283.049 277.906 283.049L277.898 283.058Z" fill="#1222B1"></path><path d="M225.181 292.336C224.794 292.336 224.441 292.07 224.346 291.675C223.589 288.491 225.723 285.281 225.81 285.143C226.076 284.749 226.61 284.646 227.006 284.912C227.402 285.178 227.505 285.71 227.247 286.105C227.23 286.13 225.448 288.834 226.025 291.28C226.137 291.744 225.844 292.207 225.388 292.31C225.319 292.328 225.25 292.336 225.19 292.336H225.181Z" fill="#1222B1"></path><path d="M235.458 314.404H278.81C280.523 314.404 281.909 315.786 281.909 317.494V317.811C281.909 319.519 280.523 320.901 278.81 320.901H235.458C233.685 320.901 232.248 319.468 232.248 317.7V317.605C232.248 315.837 233.685 314.404 235.458 314.404Z" fill="#1222B1"></path><path d="M363.845 320.901H270.754C267.759 320.901 265.702 317.906 266.778 315.125L288.544 258.939C289.181 257.299 290.756 256.218 292.52 256.218H385.611C388.606 256.218 390.663 259.213 389.588 261.994L367.821 318.18C367.184 319.82 365.609 320.901 363.845 320.901Z" fill="#1222B1"></path><path d="M334.556 288.56C334.556 292.07 331.707 294.911 328.187 294.911C324.667 294.911 321.818 292.07 321.818 288.56C321.818 285.049 324.667 282.208 328.187 282.208C331.707 282.208 334.556 285.058 334.556 288.56Z" fill="white"></path><path d="M489.263 321.15H467.866C465.741 321.15 464.011 319.425 464.011 317.305V292.903C464.011 291.315 465.302 290.027 466.894 290.027H490.235C491.828 290.027 493.119 291.315 493.119 292.903V317.305C493.119 319.425 491.389 321.15 489.263 321.15Z" fill="white"></path><path d="M489.263 322H467.866C465.267 322 463.15 319.889 463.15 317.296V292.894C463.15 290.834 464.828 289.16 466.894 289.16H490.235C492.301 289.16 493.979 290.834 493.979 292.894V317.296C493.979 319.889 491.862 322 489.263 322ZM466.894 290.877C465.775 290.877 464.871 291.778 464.871 292.894V317.296C464.871 318.944 466.214 320.283 467.866 320.283H489.263C490.915 320.283 492.258 318.944 492.258 317.296V292.894C492.258 291.778 491.354 290.877 490.235 290.877H466.894Z" fill="#1222B1"></path><path d="M474.218 270.492C474.984 266.732 477.781 263.599 481.129 261.711C484.477 259.823 488.35 259.042 492.18 258.673C491.38 261.531 492.955 264.432 493.91 267.239C495.003 270.457 495.296 274.037 494.151 277.238C493.497 279.075 492.327 280.74 490.795 281.959C489.237 283.195 487.447 283.478 485.613 284.105C484.667 284.431 483.789 285.032 482.79 285.075C481.336 285.135 480.105 284.002 479.313 282.792C478.651 281.787 478.169 280.663 477.403 279.727C476.68 278.843 475.845 278.165 475.268 277.152C474.141 275.161 473.762 272.741 474.218 270.5V270.492Z" fill="#DEE0F7"></path><path d="M454.879 274.234C455.232 271.213 456.29 268.32 456.927 265.342C457.573 262.269 457.762 259.102 457.486 255.977C460.981 260.037 467.281 260.063 471.791 262.964C474.433 264.664 476.318 267.359 477.316 270.311C478.435 273.607 478.504 277.006 477.153 280.216C477.093 280.362 477.032 280.5 476.972 280.646C476.559 281.598 476.155 282.543 475.741 283.495C475.535 283.967 475.285 284.482 474.795 284.628C474.58 284.697 474.339 284.671 474.115 284.671C472.471 284.628 470.947 285.341 469.364 285.624C467.935 285.881 466.3 285.864 464.837 285.83C462.005 285.761 458.993 285.006 457.03 282.834C454.991 280.568 454.534 277.264 454.887 274.243L454.879 274.234Z" fill="#DEE0F7"></path><path d="M481.938 290.877C481.938 290.877 481.904 290.877 481.895 290.877C481.422 290.851 481.052 290.448 481.077 289.976C481.559 280.757 482.713 271.144 487.825 263.333C488.083 262.939 488.617 262.827 489.013 263.084C489.409 263.342 489.521 263.874 489.262 264.269C484.365 271.745 483.255 281.084 482.79 290.062C482.764 290.517 482.386 290.877 481.93 290.877H481.938Z" fill="#1222B1"></path><path d="M475.914 290.877C475.518 290.877 475.165 290.602 475.07 290.207C473.091 281.272 468.391 272.835 461.824 266.449C461.48 266.114 461.48 265.573 461.807 265.239C462.143 264.895 462.685 264.895 463.021 265.222C469.82 271.839 474.7 280.577 476.749 289.838C476.852 290.302 476.559 290.757 476.094 290.86C476.034 290.877 475.965 290.877 475.905 290.877H475.914Z" fill="#1222B1"></path></g><defs><clipPath id="clip0_903_3218"><rect width="636" height="318" fill="white"></rect></clipPath></defs></svg> 